<svg width="17" height="20" viewBox="0 0 17 20" fill="none" xmlns="http://www.w3.org/2000/svg">
<path d="M15.9839 6.65119C15.8939 6.70551 13.7505 7.85178 13.7505 10.3933C13.8515 13.2918 16.4553 14.3083 16.5 14.3083C16.4553 14.3626 16.1069 15.693 15.0747 17.0875C14.2556 18.2888 13.3464 19.5 11.9658 19.5C10.6525 19.5 10.1811 18.6994 8.66577 18.6994C7.03846 18.6994 6.57801 19.5 5.33209 19.5C3.95148 19.5 2.97494 18.2239 2.11114 17.0339C0.988935 15.4764 0.0350953 13.0322 0.00142176 10.6854C-0.0212713 9.44174 0.226156 8.21929 0.854241 7.18094C1.74073 5.73135 3.32339 4.74732 5.05172 4.71487C6.37597 4.67185 7.55455 5.59098 8.36271 5.59098C9.1372 5.59098 10.5852 4.71487 12.2235 4.71487C12.9306 4.71558 14.8163 4.92085 15.9839 6.65119ZM8.25071 4.46658C8.015 3.33089 8.66577 2.1952 9.2719 1.47075C10.0464 0.59465 11.2696 0 12.3245 0C12.3918 1.13569 11.9651 2.24951 11.2023 3.06072C10.5178 3.93682 9.33925 4.59637 8.25071 4.46658Z" fill="white"/>
</svg>
