<svg width="33" height="33" viewBox="0 0 33 33" fill="none" xmlns="http://www.w3.org/2000/svg">
<path d="M21.8337 2.79419V8.12752M11.167 2.79419V8.12752" stroke="#0B0B25" stroke-width="1.8" stroke-linecap="round" stroke-linejoin="round"/>
<path d="M17.8333 5.46069H15.1667C10.1383 5.46069 7.6242 5.46069 6.06209 7.02279C4.5 8.58489 4.5 11.099 4.5 16.1274V18.794C4.5 23.8223 4.5 26.3366 6.06209 27.8986C7.6242 29.4607 10.1383 29.4607 15.1667 29.4607H17.8333C22.8616 29.4607 25.3759 29.4607 26.9379 27.8986C28.5 26.3366 28.5 23.8223 28.5 18.794V16.1274C28.5 11.099 28.5 8.58489 26.9379 7.02279C25.3759 5.46069 22.8616 5.46069 17.8333 5.46069Z" fill="#0B0B25" stroke="#FFA500" stroke-width="1.8" stroke-linecap="round" stroke-linejoin="round"/>
<path d="M4.5 13.4607H28.5" stroke="#FFA500" stroke-width="1.8" stroke-linecap="round" stroke-linejoin="round"/>
<path d="M13.8333 24.7944L13.8333 18.5906C13.8333 18.335 13.651 18.1277 13.4261 18.1277H12.5M19.1667 24.7918L21.1473 18.6505C21.1601 18.6109 21.1667 18.5694 21.1667 18.5277C21.1667 18.3069 20.9876 18.1277 20.7667 18.1277L17.8333 18.1274" stroke="#FFA500" stroke-width="1.8" stroke-linecap="round" stroke-linejoin="round"/>
</svg>
