<svg width="25" height="25" viewBox="0 0 25 25" fill="none" xmlns="http://www.w3.org/2000/svg">
<g clip-path="url(#clip0_1_1482)">
<path d="M17.089 3.02063V4.84088C16.9034 4.77175 16.7433 4.64751 16.6303 4.48484C16.5173 4.32216 16.4568 4.12883 16.4568 3.93075C16.4568 3.73268 16.5173 3.53934 16.6303 3.37667C16.7433 3.214 16.9034 3.08976 17.089 3.02063ZM17.7666 7.46063C17.9522 7.3915 18.1123 7.26727 18.2253 7.10459C18.3383 6.94191 18.3989 6.74856 18.3989 6.55048C18.3989 6.3524 18.3383 6.15905 18.2253 5.99637C18.1123 5.83369 17.9522 5.70946 17.7666 5.64033V7.46063ZM20.7813 8.59435C20.0056 9.37069 18.9847 9.85402 17.8925 9.96198C16.8004 10.0699 15.7046 9.79587 14.7918 9.18644C13.8791 8.57701 13.206 7.66995 12.8871 6.61983C12.5682 5.5697 12.6233 4.44149 13.043 3.42744C13.4627 2.41339 14.2211 1.57625 15.1888 1.05868C16.1566 0.541106 17.2739 0.375122 18.3503 0.589012C19.4268 0.802901 20.3957 1.38343 21.0921 2.23167C21.7885 3.07992 22.1692 4.14338 22.1693 5.24086C22.1701 5.86368 22.0479 6.48052 21.8097 7.05599C21.5715 7.63146 21.222 8.15424 20.7813 8.59435ZM17.7666 4.93683V3.02058C17.9521 3.08991 18.112 3.21419 18.225 3.37683C18.338 3.53947 18.3986 3.73272 18.3989 3.93075C18.3989 4.02061 18.4346 4.10679 18.4981 4.17033C18.5616 4.23387 18.6478 4.26957 18.7377 4.26957C18.8275 4.26957 18.9137 4.23387 18.9772 4.17033C19.0408 4.10679 19.0765 4.02061 19.0765 3.93075C19.076 3.55244 18.9456 3.18576 18.7072 2.89203C18.4688 2.5983 18.1367 2.39534 17.7666 2.31708V1.74591C17.7666 1.65605 17.7309 1.56987 17.6674 1.50633C17.6038 1.44279 17.5177 1.4071 17.4278 1.4071C17.3379 1.4071 17.2518 1.44279 17.1882 1.50633C17.1247 1.56987 17.089 1.65605 17.089 1.74591V2.31708C16.7186 2.39491 16.3863 2.59776 16.1479 2.89158C15.9094 3.18541 15.7792 3.55232 15.7792 3.93075C15.7792 4.30919 15.9094 4.6761 16.1479 4.96992C16.3863 5.26375 16.7186 5.4666 17.089 5.54443V7.46063C16.9035 7.39133 16.7436 7.26708 16.6306 7.10446C16.5176 6.94184 16.4569 6.74862 16.4566 6.5506C16.4556 6.46144 16.4194 6.37628 16.356 6.3136C16.2926 6.25092 16.207 6.21577 16.1179 6.21577C16.0287 6.21577 15.9431 6.25092 15.8797 6.3136C15.8163 6.37628 15.7801 6.46144 15.7791 6.5506C15.7795 6.92891 15.9099 7.29559 16.1483 7.58932C16.3867 7.88305 16.7188 8.08601 17.0889 8.16427V8.73694C17.0889 8.8268 17.1246 8.91298 17.1881 8.97652C17.2517 9.04006 17.3378 9.07575 17.4277 9.07575C17.5176 9.07575 17.6037 9.04006 17.6673 8.97652C17.7308 8.91298 17.7665 8.8268 17.7665 8.73694V8.16413C18.1369 8.08632 18.4692 7.88348 18.7077 7.58966C18.9462 7.29584 19.0764 6.92892 19.0764 6.55048C19.0764 6.17204 18.9462 5.80512 18.7077 5.5113C18.4692 5.21748 18.1369 5.01464 17.7665 4.93683H17.7666ZM24.1692 11.5269L23.1354 10.873L22.1026 10.2173C22.0524 10.1855 21.9947 10.1674 21.9353 10.1649C21.8759 10.1624 21.8168 10.1756 21.7641 10.2031C21.7114 10.2307 21.6669 10.2716 21.6351 10.3219C21.6032 10.3721 21.5851 10.4298 21.5827 10.4892L21.4825 12.9352C21.4807 12.9796 21.4877 13.024 21.503 13.0657C21.5184 13.1075 21.5418 13.1458 21.572 13.1785C21.6021 13.2112 21.6384 13.2377 21.6788 13.2563C21.7192 13.275 21.7629 13.2855 21.8073 13.2873H21.8214C21.9088 13.2873 21.9929 13.2534 22.0559 13.1928C22.1189 13.1322 22.1561 13.0496 22.1596 12.9623L22.2124 11.668C22.5155 12.3009 22.7181 12.9772 22.8129 13.6725C23.2629 16.9599 21.2063 20.1432 18.0288 21.077C17.9861 21.0895 17.9464 21.1104 17.9117 21.1383C17.8771 21.1662 17.8483 21.2007 17.827 21.2397C17.8057 21.2788 17.7923 21.3217 17.7875 21.3659C17.7828 21.4101 17.7868 21.4549 17.7994 21.4976C17.8119 21.5402 17.8327 21.58 17.8607 21.6147C17.8886 21.6493 17.9231 21.6781 17.9621 21.6994C18.0012 21.7207 18.044 21.7341 18.0883 21.7389C18.1325 21.7436 18.1773 21.7396 18.2199 21.727C19.2401 21.4255 20.1838 20.9087 20.9874 20.2116C21.791 19.5145 22.4358 18.6532 22.8783 17.6859C23.3209 16.7185 23.551 15.6675 23.553 14.6037C23.555 13.5398 23.329 12.4879 22.8901 11.5189L23.807 12.0996C23.8829 12.1465 23.9742 12.1615 24.0612 12.1415C24.1482 12.1214 24.2237 12.0679 24.2714 11.9925C24.3191 11.9171 24.3351 11.8259 24.316 11.7387C24.2969 11.6515 24.2441 11.5754 24.1692 11.5269ZM10.275 17.1501C9.43032 17.1486 8.5924 17.3006 7.80202 17.5986C7.64127 18.2532 7.24157 18.8242 6.68142 19.1992C7.74568 19.5223 8.6779 20.1789 9.34051 21.0722C10.0031 21.9654 10.361 23.0481 10.3614 24.1603C10.3615 24.2756 10.342 24.3902 10.3038 24.499H16.9478C17.0375 24.4988 17.1236 24.4631 17.1871 24.3996C17.2506 24.3361 17.2863 24.2501 17.2865 24.1603C17.2859 22.301 16.547 20.5181 15.2321 19.2035C13.9173 17.8889 12.1343 17.1503 10.275 17.1501ZM5.17969 14.9322C4.71166 14.9322 4.25813 15.0945 3.89635 15.3915C3.53457 15.6884 3.28694 16.1016 3.19565 16.5606C3.10435 17.0196 3.17504 17.4961 3.39568 17.9089C3.61631 18.3216 3.97323 18.6451 4.40563 18.8242C4.83803 19.0033 5.31915 19.0269 5.76702 18.8911C6.21489 18.7552 6.60179 18.4683 6.86182 18.0791C7.12184 17.69 7.23889 17.2227 7.19302 16.7569C7.14715 16.2912 6.9412 15.8557 6.61027 15.5248C6.42266 15.3365 6.19966 15.1872 5.95411 15.0855C5.70856 14.9839 5.44532 14.9317 5.17955 14.9322H5.17969ZM8.12859 11.2893C7.63288 11.7858 7.32464 12.4389 7.25637 13.1371C7.1881 13.8354 7.36403 14.5358 7.75419 15.1189C8.14435 15.7021 8.72461 16.1319 9.39613 16.3353C10.0676 16.5386 10.7889 16.5028 11.437 16.2341C12.0851 15.9653 12.62 15.4801 12.9505 14.8613C13.2811 14.2424 13.3869 13.5281 13.2499 12.8399C13.1128 12.1518 12.7415 11.5325 12.1991 11.0874C11.6567 10.6424 10.9768 10.3991 10.2751 10.3991C9.8763 10.3986 9.48128 10.4769 9.11286 10.6297C8.74443 10.7825 8.40987 11.0067 8.12845 11.2893H8.12859ZM5.17955 19.656C4.58794 19.6559 4.00211 19.7723 3.4555 19.9986C2.90889 20.2249 2.41221 20.5567 1.99381 20.9749C1.57542 21.3932 1.2435 21.8898 1.01702 22.4363C0.790538 22.9829 0.67392 23.5687 0.673828 24.1603C0.674026 24.2501 0.709788 24.3361 0.773286 24.3996C0.836784 24.4631 0.922847 24.4988 1.01264 24.499H9.34505C9.43483 24.4988 9.52088 24.4631 9.58437 24.3996C9.64786 24.3361 9.68361 24.2501 9.68381 24.1603C9.68363 22.9657 9.20901 21.8201 8.36434 20.9755C7.51967 20.1308 6.3741 19.6562 5.17955 19.656ZM4.61798 14.3122C4.6608 14.3535 4.71373 14.3828 4.77145 14.3971C4.82916 14.4114 4.88964 14.4103 4.94679 14.3939C5.00394 14.3774 5.05576 14.3462 5.09703 14.3034C5.1383 14.2606 5.16756 14.2076 5.18189 14.1499L5.77167 11.7758C5.79335 11.6886 5.7795 11.5964 5.73316 11.5194C5.68683 11.4424 5.61182 11.387 5.52462 11.3653C5.43742 11.3436 5.34518 11.3575 5.2682 11.4038C5.19121 11.4501 5.13579 11.5251 5.11411 11.6123L4.83206 12.7475C4.76063 12.3601 4.72313 11.9671 4.71998 11.5732C4.69195 8.25553 7.13789 5.36091 10.4092 4.84003C10.4974 4.82537 10.5763 4.7764 10.6285 4.70381C10.6808 4.63122 10.7023 4.5409 10.6882 4.45255C10.6742 4.36421 10.6257 4.28501 10.5535 4.23223C10.4813 4.17946 10.3911 4.15739 10.3027 4.17085C9.31654 4.32917 8.3724 4.68442 7.52651 5.21542C6.68063 5.74642 5.95031 6.4423 5.37911 7.26157C4.80791 8.08085 4.40751 9.00675 4.20178 9.98407C3.99606 10.9614 3.98922 11.9701 4.18167 12.9502L3.32695 12.1262C3.26227 12.0639 3.17546 12.0298 3.08563 12.0314C2.9958 12.0331 2.9103 12.0703 2.84794 12.135C2.78558 12.1997 2.75147 12.2865 2.75311 12.3763C2.75476 12.4662 2.79202 12.5517 2.8567 12.614L4.61798 14.3122Z" fill="white"/>
</g>
<defs>
<clipPath id="clip0_1_1482">
<rect width="24" height="24" fill="white" transform="translate(0.5 0.5)"/>
</clipPath>
</defs>
</svg>
