<svg width="24" height="25" viewBox="0 0 24 25" fill="none" xmlns="http://www.w3.org/2000/svg">
<path d="M15.5502 13.4961L13.5402 15.5129C12.7251 16.3309 11.2909 16.3485 10.4582 15.5129L8.44802 13.4961L1.22852 20.739C1.49725 20.8633 1.79355 20.9375 2.10855 20.9375H21.8898C22.2048 20.9375 22.501 20.8634 22.7696 20.7391L15.5502 13.4961Z" fill="white"/>
<path d="M21.8906 4.0625H2.10938C1.79438 4.0625 1.49808 4.13666 1.22944 4.26092L8.94398 12.0011C8.9445 12.0016 8.94511 12.0017 8.94563 12.0022C8.94594 12.0025 8.94616 12.0029 8.94623 12.0034L11.4547 14.5201C11.7211 14.7866 12.279 14.7866 12.5454 14.5201L15.0533 12.0038C15.0533 12.0038 15.054 12.0027 15.0545 12.0022C15.0545 12.0022 15.0556 12.0016 15.0561 12.0011L22.7705 4.26088C22.5018 4.13656 22.2056 4.0625 21.8906 4.0625ZM0.224344 5.24431C0.0853125 5.52547 0 5.83756 0 6.17188V18.8281C0 19.1624 0.0852187 19.4745 0.224297 19.7557L7.45631 12.5002L0.224344 5.24431ZM23.7757 5.24422L16.5437 12.5002L23.7757 19.7558C23.9147 19.4746 24 19.1625 24 18.8281V6.17188C24 5.83747 23.9147 5.52538 23.7757 5.24422Z" fill="white"/>
</svg>
