<svg width="32" height="32" viewBox="0 0 32 32" fill="none" xmlns="http://www.w3.org/2000/svg">
<path d="M21.3346 2.66602V7.99935M10.668 2.66602V7.99935" stroke="white" stroke-width="2" stroke-linecap="round" stroke-linejoin="round"/>
<path d="M17.3333 5.33398H14.6667C9.63835 5.33398 7.1242 5.33398 5.56209 6.89608C4 8.45818 4 10.9723 4 16.0007V18.6673C4 23.6956 4 26.2099 5.56209 27.7719C7.1242 29.334 9.63835 29.334 14.6667 29.334H17.3333C22.3616 29.334 24.8759 29.334 26.4379 27.7719C28 26.2099 28 23.6956 28 18.6673V16.0007C28 10.9723 28 8.45818 26.4379 6.89608C24.8759 5.33398 22.3616 5.33398 17.3333 5.33398Z" stroke="white" stroke-width="2" stroke-linecap="round" stroke-linejoin="round"/>
<path d="M4 13.334H28" stroke="white" stroke-width="2" stroke-linecap="round" stroke-linejoin="round"/>
</svg>
