<svg width="32" height="32" viewBox="0 0 32 32" fill="none" xmlns="http://www.w3.org/2000/svg">
<path d="M19.3346 11.9993C19.3346 13.8403 17.8422 15.3327 16.0013 15.3327C14.1604 15.3327 12.668 13.8403 12.668 11.9993C12.668 10.1584 14.1604 8.66602 16.0013 8.66602C17.8422 8.66602 19.3346 10.1584 19.3346 11.9993Z" stroke="white" stroke-width="1.5"/>
<path d="M17.6778 23.3242C17.2281 23.7572 16.627 23.9993 16.0016 23.9993C15.376 23.9993 14.7749 23.7572 14.3252 23.3242C10.207 19.3338 4.68822 14.876 7.37958 8.40432C8.83477 4.90511 12.3279 2.66602 16.0016 2.66602C19.6752 2.66602 23.1682 4.90512 24.6234 8.40432C27.3114 14.8679 21.8061 19.3475 17.6778 23.3242Z" stroke="white" stroke-width="1.5"/>
<path d="M24 26.666C24 28.1388 20.4183 29.3327 16 29.3327C11.5817 29.3327 8 28.1388 8 26.666" stroke="white" stroke-width="1.5" stroke-linecap="round"/>
</svg>
