<svg width="32" height="32" viewBox="0 0 32 32" fill="none" xmlns="http://www.w3.org/2000/svg">
<path d="M12 19.3327H17.3333M12 12.666H22.6667" stroke="white" stroke-width="2" stroke-linecap="round"/>
<path d="M5.33203 13.3327C5.33203 8.30436 5.33203 5.79022 6.89412 4.22811C8.45623 2.66602 10.9704 2.66602 15.9987 2.66602H17.9987C23.027 2.66602 25.5412 2.66602 27.1032 4.22811C28.6654 5.79022 28.6654 8.30436 28.6654 13.3327V18.666C28.6654 23.6943 28.6654 26.2085 27.1032 27.7705C25.5412 29.3327 23.027 29.3327 17.9987 29.3327H15.9987C10.9704 29.3327 8.45623 29.3327 6.89412 27.7705C5.33203 26.2085 5.33203 23.6943 5.33203 18.666V13.3327Z" stroke="white" stroke-width="2"/>
<path d="M6.66536 8H3.33203M6.66536 16H3.33203M6.66536 24H3.33203" stroke="white" stroke-width="2" stroke-linecap="round" stroke-linejoin="round"/>
</svg>
