<svg width="40" height="41" viewBox="0 0 40 41" fill="none" xmlns="http://www.w3.org/2000/svg">
<path d="M20 0.25C8.98 0.25 0 9.23 0 20.25C0 31.27 8.98 40.25 20 40.25C31.02 40.25 40 31.27 40 20.25C40 9.23 31.02 0.25 20 0.25ZM28 21.75H21.5V28.25C21.5 29.07 20.82 29.75 20 29.75C19.18 29.75 18.5 29.07 18.5 28.25V21.75H12C11.18 21.75 10.5 21.07 10.5 20.25C10.5 19.43 11.18 18.75 12 18.75H18.5V12.25C18.5 11.43 19.18 10.75 20 10.75C20.82 10.75 21.5 11.43 21.5 12.25V18.75H28C28.82 18.75 29.5 19.43 29.5 20.25C29.5 21.07 28.82 21.75 28 21.75Z" fill="url(#paint0_linear_1_6857)"/>
<defs>
<linearGradient id="paint0_linear_1_6857" x1="-8.05218e-05" y1="20.25" x2="39.9994" y2="20.25" gradientUnits="userSpaceOnUse">
<stop stop-color="#F8B133"/>
<stop offset="0.9961" stop-color="#E5332A"/>
</linearGradient>
</defs>
</svg>
