<svg width="40" height="40" viewBox="0 0 40 40" fill="none" xmlns="http://www.w3.org/2000/svg">
<path d="M21.3258 24.1626L20.442 25.0464C20.3248 25.1636 20.1659 25.2294 20.0002 25.2294C19.8344 25.2294 19.6755 25.1636 19.5583 25.0464L18.6745 24.1626C18.2057 23.6938 17.5698 23.4304 16.9067 23.4304C16.2437 23.4304 15.6078 23.6938 15.1389 24.1626C14.6701 24.6315 14.4067 25.2674 14.4067 25.9304C14.4067 26.5935 14.6701 27.2294 15.1389 27.6983L20.0002 32.5595L24.8614 27.6983C25.3303 27.2294 25.5937 26.5935 25.5937 25.9304C25.5937 25.2674 25.3303 24.6315 24.8614 24.1626C24.3926 23.6938 23.7567 23.4304 23.0936 23.4304C22.4305 23.4304 21.7946 23.6938 21.3258 24.1626ZM36.0114 17.4995L32.4339 10.3451C32.382 10.2413 32.3023 10.154 32.2036 10.093C32.1049 10.0319 31.9912 9.99957 31.8752 9.99951H27.3895C27.1514 11.396 26.522 12.6963 25.5745 13.7495H28.1252C28.2909 13.7495 28.4499 13.8154 28.5671 13.9326C28.6843 14.0498 28.7502 14.2088 28.7502 14.3745C28.7502 14.5403 28.6843 14.6992 28.5671 14.8165C28.4499 14.9337 28.2909 14.9995 28.1252 14.9995H11.8752C11.7094 14.9995 11.5504 14.9337 11.4332 14.8165C11.316 14.6992 11.2502 14.5403 11.2502 14.3745C11.2502 14.2088 11.316 14.0498 11.4332 13.9326C11.5504 13.8154 11.7094 13.7495 11.8752 13.7495H14.4258C13.4783 12.6963 12.8489 11.396 12.6108 9.99951H8.12516C8.00912 9.99957 7.89539 10.0319 7.7967 10.093C7.69802 10.154 7.61828 10.2413 7.56641 10.3451L3.98828 17.4995H36.0114Z" fill="white"/>
<path d="M3.75 18.7495V36.8745C3.75 37.0402 3.81585 37.1992 3.93306 37.3164C4.05027 37.4336 4.20924 37.4995 4.375 37.4995H35.625C35.7908 37.4995 35.9497 37.4336 36.0669 37.3164C36.1842 37.1992 36.25 37.0402 36.25 36.8745V18.7495H3.75ZM25.745 28.582L20.4419 33.8851C20.3247 34.0022 20.1657 34.0681 20 34.0681C19.8343 34.0681 19.6753 34.0022 19.5581 33.8851L14.255 28.582C13.5612 27.8768 13.1742 26.926 13.1782 25.9367C13.1822 24.9475 13.577 23.9999 14.2765 23.3003C14.976 22.6008 15.9236 22.206 16.9129 22.202C17.9022 22.198 18.8529 22.585 19.5581 23.2788L20 23.7207L20.4419 23.2788C21.1471 22.585 22.0978 22.198 23.0871 22.202C24.0764 22.206 25.024 22.6008 25.7235 23.3003C26.423 23.9999 26.8178 24.9475 26.8218 25.9367C26.8258 26.926 26.4388 27.8768 25.745 28.582ZM23.7337 13.7495C24.7871 12.9648 25.5665 11.8682 25.9612 10.6154C26.3559 9.36258 26.3458 8.01727 25.9325 6.77051C25.5191 5.52374 24.7235 4.43889 23.6586 3.67001C22.5936 2.90113 21.3135 2.4873 20 2.4873C18.6865 2.4873 17.4064 2.90113 16.3414 3.67001C15.2765 4.43889 14.4809 5.52374 14.0675 6.77051C13.6542 8.01727 13.6442 9.36258 14.0388 10.6154C14.4335 11.8682 15.2129 12.9648 16.2662 13.7495H23.7337ZM20 9.37445C19.5582 9.37529 19.1304 9.21975 18.7923 8.93539C18.4543 8.65103 18.2277 8.25619 18.1529 7.82081C18.078 7.38543 18.1597 6.93761 18.3834 6.55666C18.607 6.17571 18.9583 5.88621 19.375 5.73945V5.62445C19.375 5.45869 19.4408 5.29972 19.5581 5.18251C19.6753 5.0653 19.8342 4.99945 20 4.99945C20.1658 4.99945 20.3247 5.0653 20.4419 5.18251C20.5592 5.29972 20.625 5.45869 20.625 5.62445V5.73945C20.9896 5.86786 21.3055 6.10598 21.5293 6.42111C21.7531 6.73624 21.8739 7.11293 21.875 7.49945C21.875 7.66521 21.8092 7.82418 21.6919 7.94139C21.5747 8.0586 21.4158 8.12445 21.25 8.12445C21.0842 8.12445 20.9253 8.0586 20.8081 7.94139C20.6908 7.82418 20.625 7.66521 20.625 7.49945C20.625 7.37584 20.5883 7.255 20.5197 7.15222C20.451 7.04944 20.3534 6.96933 20.2392 6.92203C20.125 6.87472 19.9993 6.86234 19.8781 6.88646C19.7568 6.91058 19.6455 6.9701 19.5581 7.05751C19.4706 7.14492 19.4111 7.25628 19.387 7.37752C19.3629 7.49876 19.3753 7.62442 19.4226 7.73863C19.4699 7.85283 19.55 7.95044 19.6528 8.01912C19.7555 8.0878 19.8764 8.12445 20 8.12445C20.4418 8.12361 20.8696 8.27915 21.2077 8.56351C21.5457 8.84787 21.7723 9.24271 21.8471 9.67809C21.922 10.1135 21.8403 10.5613 21.6166 10.9422C21.393 11.3232 21.0417 11.6127 20.625 11.7595V11.8745C20.625 12.0402 20.5592 12.1992 20.4419 12.3164C20.3247 12.4336 20.1658 12.4995 20 12.4995C19.8342 12.4995 19.6753 12.4336 19.5581 12.3164C19.4408 12.1992 19.375 12.0402 19.375 11.8745V11.7595C19.0104 11.631 18.6945 11.3929 18.4707 11.0778C18.2469 10.7627 18.1261 10.386 18.125 9.99945C18.125 9.83369 18.1908 9.67472 18.3081 9.55751C18.4253 9.4403 18.5842 9.37445 18.75 9.37445C18.9158 9.37445 19.0747 9.4403 19.1919 9.55751C19.3092 9.67472 19.375 9.83369 19.375 9.99945C19.375 10.1231 19.4117 10.2439 19.4803 10.3467C19.549 10.4495 19.6466 10.5296 19.7608 10.5769C19.875 10.6242 20.0007 10.6366 20.1219 10.6124C20.2432 10.5883 20.3545 10.5288 20.4419 10.4414C20.5294 10.354 20.5889 10.2426 20.613 10.1214C20.6371 10.0001 20.6247 9.87448 20.5774 9.76027C20.5301 9.64607 20.45 9.54846 20.3472 9.47978C20.2444 9.41111 20.1236 9.37445 20 9.37445Z" fill="white"/>
</svg>
