<svg width="36" height="34" viewBox="0 0 36 34" fill="none" xmlns="http://www.w3.org/2000/svg">
<path d="M34.5125 25.9438C34.2862 26.1051 34.0154 26.1924 33.7375 26.1938C33.3861 26.1938 33.0491 26.0542 32.8006 25.8057C32.5521 25.5572 32.4125 25.2202 32.4125 24.8688C32.4125 24.5174 32.5521 24.1804 32.8006 23.9319C33.0491 23.6834 33.3861 23.5438 33.7375 23.5438C34.0165 23.5444 34.2881 23.6342 34.5125 23.8C34.6067 23.8645 34.7167 23.9022 34.8306 23.9091C34.9446 23.916 35.0583 23.8918 35.1596 23.8393C35.2609 23.7867 35.3461 23.7076 35.406 23.6104C35.466 23.5133 35.4985 23.4017 35.5 23.2875V20.05C35.4981 19.9354 35.465 19.8235 35.4043 19.7262C35.3436 19.629 35.2575 19.5501 35.1554 19.4981C35.0532 19.446 34.9388 19.4228 34.8245 19.4308C34.7101 19.4389 34.6001 19.4779 34.5063 19.5438C34.3086 19.6853 34.0758 19.7697 33.8334 19.788C33.591 19.8062 33.3483 19.7576 33.1316 19.6473C32.915 19.5371 32.7327 19.3694 32.6048 19.1627C32.4769 18.956 32.4082 18.7181 32.4063 18.475C32.4061 18.3019 32.4403 18.1305 32.5068 17.9706C32.5733 17.8108 32.6708 17.6657 32.7938 17.5438C32.8801 17.4557 32.9386 17.3441 32.962 17.223C32.9854 17.1019 32.9726 16.9766 32.9253 16.8627C32.878 16.7487 32.7983 16.6513 32.696 16.5823C32.5937 16.5134 32.4734 16.4761 32.35 16.475H7.22501V18.3938C7.22501 18.5596 7.15916 18.7185 7.04195 18.8357C6.92474 18.9529 6.76577 19.0188 6.60001 19.0188C6.43425 19.0188 6.27528 18.9529 6.15807 18.8357C6.04086 18.7185 5.97501 18.5596 5.97501 18.3938V16.475H3.36251C3.23803 16.477 3.11695 16.5159 3.01463 16.5868C2.91231 16.6577 2.83337 16.7574 2.78783 16.8733C2.74229 16.9892 2.7322 17.1159 2.75885 17.2376C2.7855 17.3592 2.84769 17.4701 2.93751 17.5563C3.16354 17.7767 3.30319 18.0707 3.33117 18.3852C3.35916 18.6996 3.27362 19.0137 3.09005 19.2705C2.90649 19.5274 2.63703 19.71 2.33045 19.7854C2.02388 19.8607 1.70046 19.8238 1.41876 19.6813C1.32244 19.6319 1.21517 19.6077 1.10697 19.611C0.998765 19.6142 0.893158 19.6449 0.800007 19.7C0.707954 19.7562 0.631968 19.8352 0.57941 19.9294C0.526851 20.0236 0.499501 20.1297 0.500007 20.2375V23.1938C0.501323 23.3013 0.530006 23.4066 0.583349 23.4999C0.636691 23.5933 0.712933 23.6714 0.804878 23.7271C0.896823 23.7828 1.00144 23.8141 1.10885 23.8181C1.21626 23.8221 1.32291 23.7987 1.41876 23.75C1.61977 23.6422 1.84532 23.5882 2.07339 23.5935C2.30146 23.5988 2.52426 23.6632 2.72004 23.7803C2.91582 23.8974 3.07789 24.0633 3.19042 24.2617C3.30295 24.4602 3.36211 24.6844 3.36211 24.9125C3.36211 25.1407 3.30295 25.3649 3.19042 25.5634C3.07789 25.7618 2.91582 25.9277 2.72004 26.0448C2.52426 26.1619 2.30146 26.2263 2.07339 26.2316C1.84532 26.2369 1.61977 26.1829 1.41876 26.075C1.32351 26.0255 1.21717 26.0012 1.10986 26.0044C1.00256 26.0076 0.897868 26.0383 0.805758 26.0934C0.713649 26.1486 0.637192 26.2264 0.583671 26.3194C0.53015 26.4125 0.501347 26.5177 0.500007 26.625V29.5875C0.500649 29.6952 0.529013 29.8008 0.582362 29.8943C0.635711 29.9877 0.712244 30.0659 0.80458 30.1211C0.896917 30.1764 1.00194 30.207 1.10952 30.2098C1.2171 30.2127 1.3236 30.1878 1.41876 30.1375C1.69443 29.9969 2.01079 29.9577 2.31246 30.0268C2.61413 30.0958 2.8819 30.2688 3.06889 30.5154C3.25589 30.762 3.3502 31.0665 3.33532 31.3756C3.32044 31.6848 3.19732 31.9788 2.98751 32.2063C2.90653 32.2964 2.85309 32.4078 2.83352 32.5273C2.81395 32.6468 2.82908 32.7695 2.87711 32.8806C2.92513 32.9918 3.00405 33.0869 3.10449 33.1546C3.20492 33.2223 3.32267 33.2598 3.44376 33.2625H5.97501V31.3813C5.97501 31.2155 6.04086 31.0566 6.15807 30.9394C6.27528 30.8221 6.43425 30.7563 6.60001 30.7563C6.76577 30.7563 6.92474 30.8221 7.04195 30.9394C7.15916 31.0566 7.22501 31.2155 7.22501 31.3813V33.2625H32.3494C32.4725 33.2626 32.5929 33.2263 32.6954 33.158C32.7979 33.0898 32.8779 32.9928 32.9253 32.8792C32.9728 32.7656 32.9856 32.6405 32.962 32.5196C32.9385 32.3987 32.8797 32.2876 32.7931 32.2C32.556 31.9651 32.4164 31.6492 32.4025 31.3157C32.3885 30.9822 32.5012 30.6558 32.718 30.4019C32.9347 30.148 33.2394 29.9854 33.5709 29.9468C33.9025 29.9082 34.2364 29.9965 34.5056 30.1938C34.5992 30.261 34.7094 30.3012 34.8242 30.31C34.9391 30.3187 35.0541 30.2957 35.1567 30.2434C35.2594 30.1911 35.3456 30.1116 35.4061 30.0136C35.4665 29.9155 35.4988 29.8027 35.4994 29.6875V26.45C35.498 26.3359 35.4655 26.2243 35.4054 26.1272C35.3452 26.0302 35.2598 25.9514 35.1582 25.8993C35.0566 25.8472 34.9427 25.8239 34.8289 25.8317C34.715 25.8395 34.606 25.8783 34.5125 25.9438ZM7.22501 28.6313C7.22501 28.7971 7.15916 28.956 7.04195 29.0732C6.92474 29.1904 6.76577 29.2563 6.60001 29.2563C6.43425 29.2563 6.27528 29.1904 6.15807 29.0732C6.04086 28.956 5.97501 28.7971 5.97501 28.6313V26.0875C5.97501 25.9218 6.04086 25.7628 6.15807 25.6456C6.27528 25.5284 6.43425 25.4625 6.60001 25.4625C6.76577 25.4625 6.92474 25.5284 7.04195 25.6456C7.15916 25.7628 7.22501 25.9218 7.22501 26.0875V28.6313ZM7.22501 23.5375C7.22501 23.7033 7.15916 23.8623 7.04195 23.9795C6.92474 24.0967 6.76577 24.1625 6.60001 24.1625C6.43425 24.1625 6.27528 24.0967 6.15807 23.9795C6.04086 23.8623 5.97501 23.7033 5.97501 23.5375V20.9938C5.97501 20.828 6.04086 20.6691 6.15807 20.5518C6.27528 20.4346 6.43425 20.3688 6.60001 20.3688C6.76577 20.3688 6.92474 20.4346 7.04195 20.5518C7.15916 20.6691 7.22501 20.828 7.22501 20.9938V23.5375ZM11.45 23.7813H11.025V26.5938C11.025 26.7596 10.9592 26.9185 10.8419 27.0357C10.7247 27.1529 10.5658 27.2188 10.4 27.2188C10.2342 27.2188 10.0753 27.1529 9.95807 27.0357C9.84085 26.9185 9.77501 26.7596 9.77501 26.5938V23.7813H9.35001C9.18425 23.7813 9.02528 23.7154 8.90806 23.5982C8.79085 23.481 8.72501 23.3221 8.72501 23.1563C8.72501 22.9905 8.79085 22.8316 8.90806 22.7144C9.02528 22.5971 9.18425 22.5313 9.35001 22.5313H11.45C11.6158 22.5313 11.7747 22.5971 11.8919 22.7144C12.0092 22.8316 12.075 22.9905 12.075 23.1563C12.075 23.3221 12.0092 23.481 11.8919 23.5982C11.7747 23.7154 11.6158 23.7813 11.45 23.7813ZM14.425 26.5938C14.425 26.7596 14.3592 26.9185 14.2419 27.0357C14.1247 27.1529 13.9658 27.2188 13.8 27.2188C13.6342 27.2188 13.4753 27.1529 13.3581 27.0357C13.2409 26.9185 13.175 26.7596 13.175 26.5938V23.1563C13.175 22.9905 13.2409 22.8316 13.3581 22.7144C13.4753 22.5971 13.6342 22.5313 13.8 22.5313C13.9658 22.5313 14.1247 22.5971 14.2419 22.7144C14.3592 22.8316 14.425 22.9905 14.425 23.1563V26.5938ZM17.2125 25.9688C17.2934 25.9709 17.3719 25.9414 17.4314 25.8865C17.4909 25.8317 17.5267 25.7558 17.5313 25.675C17.5453 25.5129 17.6218 25.3627 17.7447 25.256C17.8676 25.1493 18.0271 25.0947 18.1896 25.1036C18.352 25.1126 18.5046 25.1844 18.6151 25.3039C18.7255 25.4234 18.7851 25.5811 18.7813 25.7438C18.7534 26.1489 18.5698 26.5275 18.2689 26.8001C17.9681 27.0727 17.5733 27.2183 17.1674 27.2061C16.7616 27.194 16.3762 27.0252 16.0921 26.7351C15.808 26.4449 15.6473 26.0561 15.6438 25.65V24.0938C15.6487 23.6882 15.8104 23.3002 16.095 23.0112C16.3796 22.7221 16.765 22.5543 17.1705 22.543C17.576 22.5317 17.9701 22.6777 18.2704 22.9505C18.5706 23.2232 18.7537 23.6016 18.7813 24.0063C18.7895 24.1721 18.7316 24.3343 18.6203 24.4574C18.5089 24.5805 18.3533 24.6543 18.1875 24.6625C18.0217 24.6708 17.8595 24.6129 17.7364 24.5016C17.6133 24.3902 17.5395 24.2346 17.5313 24.0688C17.5267 23.9897 17.4916 23.9154 17.4333 23.8617C17.3749 23.8081 17.298 23.7792 17.2188 23.7813C17.1343 23.7799 17.0528 23.812 16.9919 23.8706C16.931 23.9291 16.8957 24.0094 16.8938 24.0938V25.65C16.8941 25.7345 16.9278 25.8154 16.9875 25.8751C17.0472 25.9348 17.1281 25.9685 17.2125 25.9688ZM23.275 27.1125C23.2065 27.1582 23.1297 27.1899 23.0489 27.2059C22.9681 27.2218 22.885 27.2216 22.8043 27.2054C22.7236 27.1891 22.6469 27.1571 22.5786 27.1111C22.5103 27.0652 22.4517 27.0062 22.4063 26.9375L21.4375 25.4625L21.2188 25.6813V26.5938C21.2188 26.7596 21.1529 26.9185 21.0357 27.0357C20.9185 27.1529 20.7595 27.2188 20.5938 27.2188C20.428 27.2188 20.269 27.1529 20.1518 27.0357C20.0346 26.9185 19.9688 26.7596 19.9688 26.5938V23.1563C19.9688 22.9905 20.0346 22.8316 20.1518 22.7144C20.269 22.5971 20.428 22.5313 20.5938 22.5313C20.7595 22.5313 20.9185 22.5971 21.0357 22.7144C21.1529 22.8316 21.2188 22.9905 21.2188 23.1563V23.9375L22.4813 22.7063C22.5998 22.5911 22.7592 22.5277 22.9245 22.53C23.0897 22.5324 23.2473 22.6003 23.3625 22.7188C23.4777 22.8373 23.5411 22.9967 23.5388 23.162C23.5364 23.3273 23.4685 23.4848 23.35 23.6L22.35 24.575L23.45 26.25C23.4958 26.318 23.5276 26.3943 23.5436 26.4746C23.5596 26.555 23.5594 26.6377 23.5431 26.7179C23.5268 26.7982 23.4947 26.8744 23.4487 26.9422C23.4027 27.0099 23.3436 27.0678 23.275 27.1125ZM26.7688 27.2063H25.05C24.8844 27.2058 24.7257 27.1398 24.6086 27.0227C24.4915 26.9056 24.4255 26.7469 24.425 26.5813V23.1438C24.4255 22.9782 24.4915 22.8195 24.6086 22.7024C24.7257 22.5853 24.8844 22.5193 25.05 22.5188H26.7688C26.9345 22.5188 27.0935 22.5846 27.2107 22.7019C27.3279 22.8191 27.3938 22.978 27.3938 23.1438C27.3938 23.3096 27.3279 23.4685 27.2107 23.5857C27.0935 23.7029 26.9345 23.7688 26.7688 23.7688H25.675V24.2375H26.7688C26.9345 24.2375 27.0935 24.3034 27.2107 24.4206C27.3279 24.5378 27.3938 24.6968 27.3938 24.8625C27.3938 25.0283 27.3279 25.1873 27.2107 25.3045C27.0935 25.4217 26.9345 25.4875 26.7688 25.4875H25.675V25.9563H26.7688C26.9345 25.9563 27.0935 26.0221 27.2107 26.1394C27.3279 26.2566 27.3938 26.4155 27.3938 26.5813C27.3938 26.7471 27.3279 26.906 27.2107 27.0232C27.0935 27.1404 26.9345 27.2063 26.7688 27.2063ZM30.675 23.7813H30.25V26.5938C30.25 26.7596 30.1842 26.9185 30.0669 27.0357C29.9497 27.1529 29.7908 27.2188 29.625 27.2188C29.4592 27.2188 29.3003 27.1529 29.1831 27.0357C29.0659 26.9185 29 26.7596 29 26.5938V23.7813H28.575C28.4092 23.7813 28.2503 23.7154 28.1331 23.5982C28.0159 23.481 27.95 23.3221 27.95 23.1563C27.95 22.9905 28.0159 22.8316 28.1331 22.7144C28.2503 22.5971 28.4092 22.5313 28.575 22.5313H30.675C30.8408 22.5313 30.9997 22.5971 31.1169 22.7144C31.2342 22.8316 31.3 22.9905 31.3 23.1563C31.3 23.3221 31.2342 23.481 31.1169 23.5982C30.9997 23.7154 30.8408 23.7813 30.675 23.7813ZM32.1375 14.4313L30.6188 13.2875C30.4861 13.1873 30.3988 13.0384 30.376 12.8737C30.3531 12.709 30.3966 12.542 30.4969 12.4094C30.5972 12.2768 30.746 12.1895 30.9107 12.1666C31.0754 12.1438 31.2424 12.1873 31.375 12.2875L32.8938 13.4375L34.6875 11.0625C34.7603 10.9623 34.802 10.8428 34.8072 10.7191C34.8125 10.5953 34.7811 10.4727 34.7171 10.3667C34.6531 10.2606 34.5592 10.1758 34.4472 10.1228C34.3352 10.0698 34.2101 10.051 34.0875 10.0688C33.8276 10.1086 33.5617 10.0706 33.3233 9.95969C33.0849 9.84876 32.8847 9.66981 32.7477 9.44535C32.6108 9.2209 32.5433 8.96095 32.5537 8.69822C32.5641 8.43549 32.652 8.18171 32.8063 7.96879C33.0375 7.61379 33.6325 7.56754 33.6625 7.08129C33.6761 6.97338 33.6607 6.8638 33.6178 6.76383C33.575 6.66387 33.5063 6.57712 33.4188 6.51254L31.0563 4.72504C30.9697 4.66169 30.8685 4.62144 30.7621 4.60811C30.6557 4.59477 30.5477 4.60878 30.4482 4.64882C30.3487 4.68886 30.2611 4.7536 30.1936 4.83693C30.1261 4.92026 30.081 5.01942 30.0625 5.12504C30.0309 5.33797 29.9472 5.53978 29.8188 5.71254C29.6066 5.99185 29.2921 6.17543 28.9446 6.2229C28.5971 6.27037 28.2449 6.17784 27.9656 5.96567C27.6863 5.75349 27.5027 5.43906 27.4553 5.09153C27.4078 4.744 27.5003 4.39185 27.7125 4.11254C27.843 3.94094 28.0151 3.80543 28.2125 3.71879C28.3095 3.67204 28.3929 3.60129 28.4548 3.51326C28.5168 3.42522 28.5552 3.32282 28.5665 3.21576C28.5778 3.1087 28.5615 3.00054 28.5192 2.90153C28.477 2.80252 28.4101 2.71596 28.325 2.65004L25.9625 0.86254C25.876 0.799012 25.7748 0.758618 25.6683 0.745189C25.5619 0.73176 25.4538 0.745739 25.3542 0.785802C25.2547 0.825866 25.1671 0.890686 25.0996 0.974117C25.0321 1.05755 24.9871 1.15683 24.9688 1.26254C24.9388 1.47592 24.8549 1.67812 24.725 1.85004C24.5675 2.0519 24.355 2.20385 24.113 2.28752C23.8711 2.37118 23.61 2.383 23.3615 2.32152C23.113 2.26005 22.8876 2.12793 22.7125 1.94111C22.5374 1.7543 22.4202 1.52079 22.375 1.26879C22.3522 1.14948 22.2956 1.03927 22.2117 0.951383C22.1279 0.863493 22.0205 0.801654 21.9024 0.773284C21.7843 0.744914 21.6605 0.751217 21.5459 0.791438C21.4313 0.831658 21.3307 0.904089 21.2563 1.00004L19.5125 3.30629C19.8656 3.57379 20.6875 4.19192 21.025 4.45004C21.127 4.53078 21.2015 4.64109 21.2384 4.76584C21.2752 4.8906 21.2726 5.0237 21.2309 5.1469C21.1891 5.2701 21.1103 5.37738 21.0052 5.45403C20.9001 5.53068 20.7738 5.57295 20.6438 5.57504C20.3519 5.60192 18.7563 4.30004 18.7563 4.30004L10.475 15.225H31.5375L32.1375 14.4313ZM25.3688 8.52504C25.2678 8.65585 25.1194 8.74164 24.9556 8.76387C24.7919 8.78609 24.6259 8.74295 24.4938 8.64379L22.4625 7.10629C22.3973 7.05663 22.3424 6.99461 22.3011 6.92377C22.2599 6.85292 22.2329 6.77464 22.2219 6.69338C22.2109 6.61213 22.216 6.52951 22.2369 6.45022C22.2578 6.37093 22.2941 6.29654 22.3438 6.23129C22.3934 6.16604 22.4554 6.11121 22.5263 6.06993C22.5971 6.02865 22.6754 6.00172 22.7567 5.9907C22.8379 5.97967 22.9205 5.98476 22.9998 6.00566C23.0791 6.02657 23.1535 6.06288 23.2188 6.11254L25.2438 7.65004C25.3759 7.7498 25.4633 7.89782 25.4867 8.06176C25.5101 8.22571 25.4677 8.39226 25.3688 8.52504ZM29.425 11.6C29.3241 11.731 29.1757 11.8169 29.0119 11.8391C28.8481 11.8613 28.6821 11.8181 28.55 11.7188L26.5188 10.1813C26.387 10.081 26.3004 9.93248 26.2782 9.76838C26.2559 9.60429 26.2997 9.43807 26.4 9.30629C26.5003 9.17451 26.6488 9.08797 26.8129 9.0657C26.977 9.04343 27.1432 9.08726 27.275 9.18754L29.3063 10.725C29.3719 10.7744 29.4271 10.8363 29.4687 10.9071C29.5103 10.978 29.5374 11.0563 29.5484 11.1377C29.5595 11.2191 29.5542 11.3019 29.5331 11.3813C29.5119 11.4606 29.4751 11.535 29.425 11.6Z" fill="white"/>
</svg>
