<svg width="19" height="20" viewBox="0 0 19 20" fill="none" xmlns="http://www.w3.org/2000/svg">
<g clip-path="url(#clip0_2335_88)">
<path d="M18.9638 10.4638C18.9647 9.79793 18.9094 9.13317 18.7992 8.47656H9.78516V12.2409H14.948C14.7345 13.4555 14.045 14.5286 13.0389 15.2106V17.654H16.1203C17.9242 15.9532 18.9638 13.4379 18.9638 10.4638Z" fill="#4285F4"/>
<path d="M9.78609 20.0123C12.3655 20.0123 14.5375 19.1463 16.1212 17.6531L13.0398 15.2097C12.1822 15.8041 11.0778 16.1438 9.78609 16.1438C7.29312 16.1438 5.17703 14.4251 4.42031 12.1094H1.24609V14.6274C2.86859 17.9285 6.17281 20.012 9.78609 20.0123Z" fill="#34A853"/>
<path d="M4.41855 12.1104C4.01855 10.8969 4.01855 9.58294 4.41855 8.36946V5.85156H1.24434C-0.112695 8.61257 -0.112695 11.8673 1.24434 14.6285L4.41855 12.1104Z" fill="#FBBC04"/>
<path d="M9.78609 4.33806C11.1494 4.3152 12.4664 4.84186 13.4527 5.80424L16.1809 3.01446C14.4511 1.35328 12.1592 0.441098 9.78609 0.469389C6.17281 0.469549 2.86859 2.55317 1.24609 5.85443L4.42031 8.37232C5.17703 6.05662 7.29312 4.33806 9.78609 4.33806Z" fill="#EA4335"/>
</g>
<defs>
<clipPath id="clip0_2335_88">
<rect width="19" height="20" fill="white"/>
</clipPath>
</defs>
</svg>
