<svg width="25" height="25" viewBox="0 0 25 25" fill="none" xmlns="http://www.w3.org/2000/svg">
<path d="M18.7466 16.3765C17.9625 15.6024 16.9837 15.6024 16.2046 16.3765C15.6103 16.9658 15.016 17.5551 14.4316 18.1544C14.2718 18.3192 14.137 18.3542 13.9422 18.2443C13.5577 18.0345 13.1481 17.8647 12.7786 17.635C11.0556 16.5513 9.61227 15.1579 8.33376 13.5897C7.6995 12.8106 7.13516 11.9766 6.74062 11.0377C6.66071 10.8479 6.67569 10.7231 6.83051 10.5682C7.42482 9.99392 8.00414 9.40461 8.58846 8.81529C9.40251 7.99625 9.40251 7.03737 8.58347 6.21333C8.11901 5.74388 7.65455 5.28442 7.19009 4.81496C6.71065 4.33552 6.23621 3.85109 5.75177 3.37664C4.96769 2.61253 3.98883 2.61253 3.20974 3.38164C2.61044 3.97095 2.03611 4.57524 1.42682 5.15457C0.862479 5.68894 0.577811 6.34318 0.517881 7.10729C0.422992 8.35084 0.727636 9.52447 1.15714 10.6681C2.03611 13.0354 3.37455 15.1379 4.99765 17.0657C7.19009 19.6726 9.80704 21.7352 12.8685 23.2235C14.2469 23.8927 15.6752 24.4071 17.2284 24.492C18.2971 24.5519 19.226 24.2822 19.9702 23.4482C20.4796 22.8789 21.0539 22.3595 21.5933 21.8151C22.3924 21.0061 22.3973 20.0272 21.6033 19.2281C20.6544 18.2743 19.7005 17.3254 18.7466 16.3765ZM17.7927 12.3961L19.6356 12.0815C19.3459 10.3885 18.5468 8.85525 17.3333 7.63667C16.0498 6.35317 14.4266 5.54411 12.6387 5.2944L12.379 7.14724C13.7624 7.34201 15.021 7.96628 16.0148 8.96012C16.9537 9.89903 17.568 11.0876 17.7927 12.3961ZM20.6744 4.38546C18.5468 2.25795 15.855 0.914516 12.8834 0.5L12.6238 2.35284C15.1908 2.71242 17.518 3.87606 19.3559 5.70892C21.0989 7.45189 22.2425 9.65431 22.657 12.0765L24.4999 11.7619C24.0155 8.95513 22.692 6.4081 20.6744 4.38546Z" fill="white"/>
</svg>
