<svg width="17" height="16" viewBox="0 0 17 16" fill="none" xmlns="http://www.w3.org/2000/svg">
<path d="M3.34651 12.5631C3.49643 13.6767 4.41872 14.549 5.54108 14.6006C6.48548 14.644 7.44484 14.6667 8.5013 14.6667C9.55777 14.6667 10.5171 14.644 11.4615 14.6006C12.5839 14.549 13.5062 13.6767 13.6561 12.5631C13.754 11.8365 13.8346 11.0917 13.8346 10.3333C13.8346 9.57493 13.754 8.8302 13.6561 8.10353C13.5062 6.99 12.5839 6.11766 11.4615 6.06606C10.5171 6.02265 9.55777 6 8.5013 6C7.44484 6 6.48548 6.02265 5.54108 6.06606C4.41872 6.11766 3.49643 6.99 3.34651 8.10353C3.24866 8.8302 3.16797 9.57493 3.16797 10.3333C3.16797 11.0917 3.24866 11.8365 3.34651 12.5631Z" stroke="white" stroke-width="1.5"/>
<path d="M5.5 6.0026V4.33594C5.5 2.67908 6.84315 1.33594 8.5 1.33594C10.1569 1.33594 11.5 2.67908 11.5 4.33594V6.0026" stroke="white" stroke-width="1.5" stroke-linecap="round" stroke-linejoin="round"/>
<path d="M8.49609 10.3359H8.50209" stroke="white" stroke-width="2" stroke-linecap="round" stroke-linejoin="round"/>
</svg>
