<svg width="33" height="33" viewBox="0 0 33 33" fill="none" xmlns="http://www.w3.org/2000/svg">
<path d="M26.6113 10.6999C26.8209 10.4903 27.182 10.469 27.3943 10.7006C28.6379 12.057 29.3261 13.0614 29.5528 14.1736C29.6832 14.8136 29.7017 15.4649 29.6076 16.0985C29.3532 17.8108 27.9659 19.1981 25.1912 21.9728L21.8068 25.3572C19.0321 28.1319 17.6448 29.5192 15.9325 29.7736C15.2989 29.8677 14.6476 29.8492 14.0076 29.7188C12.8955 29.4921 11.8912 28.804 10.535 27.5607C10.3031 27.3481 10.3246 26.9867 10.5343 26.7769C11.7026 25.6087 11.6471 23.6591 10.4103 22.4223C9.17362 21.1856 7.22402 21.1301 6.05577 22.2984C5.84601 22.5081 5.48454 22.5296 5.27193 22.2976C4.02861 20.9415 3.34048 19.9372 3.11385 18.8251C2.98345 18.1851 2.9649 17.5337 3.05905 16.9001C3.3135 15.1879 4.70081 13.8005 7.47542 11.0259L10.8599 7.64144C13.6345 4.86683 15.0219 3.47952 16.7341 3.22506C17.3677 3.13092 18.0191 3.14947 18.6591 3.27987C19.7713 3.50652 20.7757 4.19478 22.1321 5.43838C22.3637 5.65075 22.3424 6.01178 22.1328 6.22131C20.9645 7.38955 21.0201 9.33915 22.2568 10.5759C23.4935 11.8126 25.4432 11.8681 26.6113 10.6999Z" stroke="white" stroke-width="2" stroke-linejoin="round"/>
<path d="M25.6673 20.4993L12.334 7.16602" stroke="white" stroke-width="2" stroke-linecap="round" stroke-linejoin="round"/>
</svg>
