<svg width="24" height="24" viewBox="0 0 24 24" fill="none" xmlns="http://www.w3.org/2000/svg">
<path d="M12 1.99951C6.49 1.99951 2 6.48951 2 11.9995C2 17.5095 6.49 21.9995 12 21.9995C17.51 21.9995 22 17.5095 22 11.9995C22 6.48951 17.51 1.99951 12 1.99951ZM16.78 9.69951L11.11 15.3695C10.97 15.5095 10.78 15.5895 10.58 15.5895C10.38 15.5895 10.19 15.5095 10.05 15.3695L7.22 12.5395C6.93 12.2495 6.93 11.7695 7.22 11.4795C7.51 11.1895 7.99 11.1895 8.28 11.4795L10.58 13.7795L15.72 8.63951C16.01 8.34951 16.49 8.34951 16.78 8.63951C17.07 8.92951 17.07 9.39951 16.78 9.69951Z" fill="url(#paint0_linear_1_6602)"/>
<defs>
<linearGradient id="paint0_linear_1_6602" x1="1.99996" y1="11.9995" x2="21.9997" y2="11.9995" gradientUnits="userSpaceOnUse">
<stop stop-color="#F8B133"/>
<stop offset="0.9961" stop-color="#E5332A"/>
</linearGradient>
</defs>
</svg>
